<svg id="svg" version="1.1" viewBox="0 0 300 300" width="300" height="300" xmlns="http://www.w3.org/2000/svg"><svg xmlns="http://www.w3.org/2000/svg"><defs><clipPath id="clip-1"><rect x="0" y="0" transform="scale(0.20216,0.20216)" width="1484" height="1484" fill="none"/></clipPath></defs><g clip-path="url(#clip-1)" fill="none" fill-rule="nonzero" stroke="none" stroke-width="1" stroke-linecap="butt" stroke-linejoin="miter" stroke-miterlimit="10" stroke-dasharray="" stroke-dashoffset="0" font-family="none" font-weight="none" font-size="none" text-anchor="none" style="mix-blend-mode: normal"><path d="M68.10142,4.74481c3.26563,1.06884 12.78538,9.85546 16.0221,12.13219c1.04798,0.73718 2.84656,2.8709 3.99279,3.79308c3.48133,2.80067 6.74272,5.66968 9.6847,9.04427c5.97069,6.22925 12.35296,12.12776 18.4312,18.24946c2.40606,2.42325 4.56287,5.14346 6.8715,7.6593c6.59353,6.48154 12.58484,13.46179 18.76961,20.32379l7.73369,8.64036c1.47271,1.64151 2.94926,2.93875 4.25984,4.7442c9.53612,0.06469 19.06941,0.33659 28.5936,0.8157c2.64825,-1.98174 8.54353,-8.27224 11.3434,-10.94394c9.06611,-8.64926 18.1591,-17.28235 26.69009,-26.46044c6.64084,-7.144 13.02493,-14.17702 17.69879,-22.86995c2.48046,-4.61503 4.34232,-10.08435 5.88477,-15.0787c1.05323,-3.41489 1.91644,-7.2206 3.25876,-10.51536c0.43464,6.61852 1.02089,13.9502 0.87736,20.57776c-0.51348,23.67129 -6.56402,47.58356 -13.26348,70.17756c-1.36253,4.66799 -2.83423,9.30384 -4.41105,13.90391c-0.87332,2.53605 -2.51887,6.77729 -3.11725,9.20337l-0.06469,0.26381c0.20822,0.68976 0.52561,1.35647 0.79043,2.0153c7.03504,17.46105 10.47978,36.24582 10.67992,55.05061c0.01819,1.7998 0.25876,4.23699 -0.27493,5.97028c-1.34838,4.37466 -5.03369,10.72722 -7.13612,14.61226c2.41375,3.44818 4.33221,8.32237 6.36995,12.16536c3.70148,6.98046 7.99326,14.12668 11.23787,21.30728c1.10984,2.45418 -1.81334,7.99326 -2.97372,10.41509c-2.45822,6.14555 -3.6004,7.0128 -10.0593,8.3814c-1.49394,1.82951 -2.73315,3.53369 -4.31604,5.38342c0.82682,-0.14353 2.9434,-0.69744 3.44677,-0.02426c-0.53369,0.81267 -2.07008,1.51213 -2.94542,2.00741c-14.96159,8.44609 -36.56604,3.29313 -48.80317,-7.81739c-5.0527,11.79178 -22.33646,18.66914 -31.98619,26.13275c-4.4622,3.45081 -17.34704,14.34501 -19.20829,18.90768c-2.24131,-3.64892 -4.52527,-7.26954 -6.85128,-10.8659c-4.07567,-6.43059 -8.10748,-12.6752 -13.30674,-18.35782c-4.58774,-5.01146 -9.77365,-9.42049 -14.83949,-14.02358c-9.05559,-8.22978 -19.98619,-15.10714 -25.62918,-26.3996c-3.19528,-6.39218 -3.06489,-11.65633 -0.89919,-18.18194c-5.19724,3.36186 -7.17109,5.39757 -11.43437,10.05121c-0.67682,0.73989 -2.92035,3.3558 -3.47345,3.78437l-0.32264,-0.06873l-0.05964,-0.4973c0.53956,-1.09367 0.73787,-2.00943 1.0314,-3.19003c5.87082,-23.60216 14.10889,-47.06765 26.06482,-68.30903c1.84973,-3.28646 3.96388,-6.40937 5.9527,-9.58989c-2.20431,-3.769 -4.28389,-7.65889 -6.25876,-11.54111c-16.00836,-31.46786 -15.64609,-65.45317 -15.08066,-99.82399c0.05923,-3.59474 0.19791,-18.71531 1.02898,-21.15425zM107.97534,49.43187l0.06813,-0.86402c-0.56462,-0.80761 -3.79993,-4.24629 -4.63868,-5.17621c-0.47426,-0.63053 -1.28369,-1.74825 -2.03005,-1.92574l0.04003,0.2527l0.52864,-0.01536l-0.56563,-0.08592l0.00869,-0.03376c0.4686,0.83349 1.18282,1.47332 1.8562,2.14003c1.53477,1.88996 3.11786,3.90081 4.73268,5.70829z" fill="#000101"/><path d="M108.04346,48.56786c11.6626,12.94528 22.98174,26.19623 33.94549,39.73868c3.05701,3.83127 6.01051,7.744 8.85748,11.73396c1.10398,1.55317 4.05687,6.00222 5.20977,7.20222c1.60391,1.66961 6.54704,4.59805 8.78854,6.14575c4.27581,2.91691 8.34704,6.12291 12.18538,9.59535c19.4159,17.86233 20.9814,34.90836 23.06786,60.15991c0.34286,4.14906 0.41058,11.15296 0.8903,15.01011l-0.10775,-0.22682c-1.61664,-3.45566 -4.75815,-13.05768 -6.12675,-16.85276c-6.7122,-18.61233 -13.12783,-31.58511 -27.88019,-45.13565c1.48524,2.53019 3.30121,4.91018 4.81941,7.51577c3.6283,6.22743 5.87204,12.03457 7.82446,18.89596c-10.84104,-9.93053 -17.14852,-7.48221 -30.10694,-8.87931c-7.59683,-0.81894 -15.50337,-2.49036 -23.32561,-3.27453c7.63827,4.02958 14.74407,8.99616 21.15263,14.78491c2.85889,2.60115 5.18288,5.55647 7.91786,8.23403c7.15856,7.00856 17.80674,10.37143 27.75889,9.93235c-6.48639,3.3936 -14.31166,6.14151 -21.28019,9.64852c-11.44892,-5.78288 -22.65788,-11.0434 -35.65512,-12.07217c-3.6465,-0.28848 -7.18181,-0.21065 -10.83133,-0.17608c7.41631,3.10472 20.50735,10.48241 25.91867,16.48201c6.87008,7.61685 8.76125,10.81294 17.72951,16.50566c-0.52823,-1.51011 -1.144,-3.43261 -1.72722,-4.88814c11.44832,4.9124 19.86509,10.49798 28.17999,19.69003c4.55438,5.03369 10.15168,7.64757 16.49818,9.82075c-4.72722,-5.65633 -11.3812,-12.25876 -17.21038,-16.90633c1.9692,0.78235 5.84757,3.40633 7.78059,4.66577c6.44373,4.25337 12.81914,8.60984 19.12237,13.06941c4.45755,3.09906 10.50404,7.84973 15.67925,9.0566c-1.05728,1.89016 -1.82143,3.35377 -3.33154,4.94879c-1.98315,0.62466 -4.34636,0.70148 -6.43868,0.79245c-7.81334,0.33558 -15.69987,-0.51752 -22.77453,-4.05728c-3.90162,-1.95283 -6.15081,-5.13881 -9.2905,-8.05391c-7.15795,-6.64892 -15.58322,-12.30728 -25.17089,-14.66846c-2.7841,-0.68531 -4.86934,-0.78437 -7.54832,-1.22102c4.92109,5.74933 7.90957,7.75876 14.48592,11.44205c-11.36604,-2.35108 -20.02682,-7.28571 -29.49097,-13.96294c-2.33106,-1.64555 -5.71193,-4.10782 -7.85094,-5.96159c-1.98679,4.02898 -3.41806,7.41712 -3.83531,11.97574c-4.86732,-4.031 -8.756,-7.969 -11.98443,-13.50202c2.38767,15.17385 7.24993,22.95687 16.41509,35.49865c2.10081,2.87466 4.71974,5.84838 6.72392,8.72305c-12.26664,-9.95216 -32.05714,-23.3814 -33.7407,-40.34636c-0.80822,-8.14286 2.07453,-16.98518 6.94791,-23.49461c-10.294,7.64757 -15.64973,13.97305 -20.97776,25.6314c-0.85168,-3.98854 -1.84427,-8.2035 -2.30842,-12.24057c-1.32635,-11.53383 0.47689,-23.11637 6.87372,-32.96988c3.62082,-5.57729 7.2942,-8.79117 12.5814,-12.58787c-13.86651,5.02237 -24.37136,12.60445 -33.48558,24.33336c4.45553,-13.35546 9.19832,-26.2126 18.49852,-37.17049c3.88827,-4.58147 8.17075,-8.20633 12.25714,-12.41968c-8.45135,-5.07513 -14.59609,-13.24003 -17.13295,-22.76624c-0.51065,-2.00236 -0.89596,-4.03464 -1.15391,-6.08491c11.74023,13.15613 28.26712,21.28827 44.16995,28.44966c-0.04811,-7.83315 2.42871,-16.96031 9.46658,-21.21368c0.66813,-0.40371 2.84495,-1.11044 2.97352,-1.68376c-4.00189,-7.81334 -12.83713,-17.39757 -20.53989,-21.71644c6.94832,-0.22904 13.61482,-0.02648 20.03167,3.12938c-2.51321,-3.83673 -4.81718,-8.20694 -7.43673,-12.25694c-5.47965,-8.38342 -11.30276,-16.5372 -17.45418,-24.4407c-2.18127,-2.84292 -6.20357,-8.18531 -8.62237,-10.71712z" fill="#fefefe"/><path d="M75.36368,19.73396c0.32264,0.65432 1.53497,6.25425 1.79596,7.35358c0.85492,3.61779 1.83214,7.20546 2.92945,10.75714c6.12433,19.23113 16.14643,36.9936 29.44084,52.17898c-6.9748,-4.32736 -13.92756,-9.26321 -20.59488,-14.03551c4.21961,7.77756 6.94164,11.81725 12.83288,18.57251c4.35708,4.65263 8.76873,8.91247 13.84306,12.7967c-5.18026,1.25377 -8.74185,2.39151 -13.05505,5.8595c-4.44077,-4.8841 -7.25782,-6.97278 -11.80714,-12.75425c-13.73147,-17.45135 -15.2998,-36.51004 -15.95317,-57.87857c-0.18881,-6.17244 -0.21469,-16.79535 0.56806,-22.85007z" fill="#fefefe"/><path d="M159.96307,164.3442c6.4777,1.32513 16.85317,5.3717 20.71092,10.93524c-9.69198,-2.75256 -15.18538,-0.74757 -20.71092,-10.93524z" fill="#fefefe"/><path d="M126.92284,111.63518c1.88228,-1.86004 3.28059,-3.06247 5.09879,-5.04966l0.30869,0.1403c0.83228,2.98787 1.57439,1.13713 2.85465,2.37796c-0.50296,0.66934 -1.94535,0.64832 -2.05876,0.79751c-0.82419,1.08255 -0.87473,2.52271 -2.15094,3.3095l-0.3465,-0.07156c-0.41907,-0.79387 -0.30829,-0.92264 -1.00371,-1.22102c-0.75748,0.24683 -0.62466,0.26482 -0.98571,1.031c-0.43949,0.93295 -1.49292,1.99084 -2.26051,2.65249l-0.09845,0.36449c0.35458,0.60627 0.41119,0.69117 0.40472,1.38801l-0.32951,0.07904c-0.90991,-0.60485 -1.95889,-1.76745 -2.74791,-2.57628c1.15512,-1.19697 2.06806,-2.10768 3.31516,-3.22177z" fill="#0e0f0f"/><path d="M126.92284,111.63518l0.35701,0.29009l-0.11624,0.52257c-0.93194,0.63093 -2.31792,1.39993 -2.24616,2.7091l1.02109,0.13261c0.20054,0.31011 0.21691,0.33073 0.34185,0.67662c0.35458,0.60627 0.41119,0.69117 0.40472,1.38801l-0.32951,0.07904c-0.90991,-0.60485 -1.95889,-1.76745 -2.74791,-2.57628c1.15512,-1.19697 2.06806,-2.10768 3.31516,-3.22177z" fill="#19191a"/><path d="M127.16361,112.44784c0.47406,1.55418 -0.75303,2.62379 -2.24616,2.7091c-0.07177,-1.30916 1.31422,-2.07817 2.24616,-2.7091z" fill="#000101"/><path d="M203.02763,93.47608c0.65296,0.53693 0.54784,1.57379 0.61253,2.40728c0.79852,0.05458 1.64151,0.03538 2.34704,0.3657l0.02022,0.27089c-0.60647,0.36186 -1.57278,0.32082 -2.32278,0.36449l-0.22844,0.26361c0.19609,0.65256 0.25067,0.74879 0.2345,1.4153l-0.42049,0.39825c-0.88747,-0.32082 -0.91981,-1.13895 -2.08908,-1.83174l-0.36792,0.13625c-0.57028,1.88875 1.51496,2.43356 1.67466,2.67412l-0.45708,0.63598c-0.91617,0.10836 -0.57049,-1.12116 -1.58875,-1.46119c-0.73686,0.5626 -0.7872,1.16301 -1.36375,2.13841c-0.65357,0.95013 -1.0405,0.85694 -1.66779,1.669c0.23733,0.6566 0.67399,1.45775 0.30142,2.03794l-0.4031,0.0184c-0.78902,-0.65539 -2.06058,-2.00034 -2.83827,-2.77257c1.85923,-2.02136 4.36011,-3.91961 6.26745,-5.97049c0.42291,-0.45485 0.45526,-0.31253 1.19009,-0.28484c0.50317,-0.39946 0.54966,-1.34292 1.00654,-2.28962z" fill="#19191a"/><path d="M197.73578,99.96853c0.29798,0.02608 0.28403,0.0655 0.57433,0.20701l0.06631,0.49528c-0.27412,0.79205 -0.81287,1.3407 -1.35222,1.97871c-0.58908,-0.37136 -0.61354,-0.41462 -0.73747,-1.0591c0.26988,-0.71584 0.8529,-1.10276 1.44906,-1.6219z" fill="#000101"/><path d="M214.28167,199.18666c0.57412,-0.67096 2.69677,-2.53484 3.46092,-3.225l0.17183,0.30586l-0.27291,0.38834c0.20822,0.23248 0.3841,0.41139 0.60647,0.63012c-0.70553,-0.01011 -0.51954,-0.10613 -1.04111,0.21873c-0.09097,0.54319 0.09906,0.85532 0.30121,1.37385l-0.10108,0.36631c-0.87332,0.26947 -0.89353,0.28363 -1.32412,1.16705c-0.48315,0.99683 -1.20889,2.53888 -2.47844,2.6622c0.39016,1.08962 0.55189,0.81873 0.43464,1.83154l-0.33558,0.06873c-0.91375,-0.5721 -1.83558,-1.74259 -2.56941,-2.57749c0.8531,-0.98794 2.18935,-2.25788 3.14757,-3.21024z" fill="#0e0f0f"/><path d="M214.28167,199.18666l0.31739,0.12473c-0.39218,1.62635 -2.39757,1.49252 -1.87601,3.16233c0.26685,0.22237 0.74798,0.43868 0.8814,0.6004c0.39016,1.08962 0.55189,0.81873 0.43464,1.83154l-0.33558,0.06873c-0.91375,-0.5721 -1.83558,-1.74259 -2.56941,-2.57749c0.8531,-0.98794 2.18935,-2.25788 3.14757,-3.21024z" fill="#19191a"/><path d="M163.40054,250.22709c0.56947,0.12938 1.20283,0.44677 1.2942,1.04717c0.17042,1.11995 0.81914,1.21698 1.31826,1.89623l-0.27776,0.38814c-1.08639,0.35377 -2.14751,0.39825 -3.28181,0.4973c0.3936,0.71765 0.65458,1.40701 0.95782,2.16105c-0.17871,0.07884 -0.47689,0.15768 -0.67318,0.21631c-0.98935,-0.42251 -2.24656,-2.03369 -2.98484,-2.88477c1.27156,-1.27358 2.19239,-2.24798 3.6473,-3.32143z" fill="#0e0f0f"/><path d="M204.99259,208.56267c3.1597,0.53167 -0.26482,1.94272 2.85445,2.28437l0.22439,0.29919l-0.08895,0.37197c-1.09569,0.65701 -2.52291,-0.23248 -3.45889,0.89151c0.05256,0.84097 0.1597,0.76213 0.65094,1.51415l-0.33154,0.49326l-0.42857,-0.00809c-0.99663,-0.65701 -1.86186,-1.81536 -2.51179,-2.80997c1.13511,-1.23113 1.80829,-1.92049 3.08996,-3.03639z" fill="#19191a"/><path d="M205.15027,209.16712c0.27898,0.18194 0.32345,0.25674 0.56402,0.49124l-0.00809,0.62466c-0.42251,0.83693 -1.09367,1.30795 -1.81334,1.93464l-0.56402,-0.27089l-0.12332,-0.46698c0.28706,-1.06132 1.10984,-1.66173 1.94474,-2.31267z" fill="#000101"/><path d="M188.85829,108.31415c2.07534,0.78922 0.40937,1.36536 1.29663,2.44468l1.1252,-0.01739l0.18376,0.21469c-0.69097,1.11792 -2.42689,0.28969 -3.38086,1.1062c-0.10371,0.77891 0.29677,1.25195 0.70795,1.96577c-0.29636,0.21894 -0.2816,0.19751 -0.65054,0.24704c-1.15088,-0.62082 -1.96941,-1.86873 -2.75054,-2.91166c0.94892,-0.94528 2.36826,-2.35492 3.4684,-3.04933z" fill="#19191a"/><path d="M188.68464,109.1157l0.55997,0.11563c0.70573,1.00553 -1.0498,2.07332 -1.76422,2.58639c-0.71018,-0.01617 -0.42695,0.10654 -0.92426,-0.2434c0.11301,-1.0498 1.26995,-1.75896 2.1285,-2.45863z" fill="#000101"/><path d="M117.86078,120.87534l0.73383,0.52823c0.43807,0.94912 0.07015,0.69784 0.16092,1.88976l0.3473,0.22237c0.53208,-0.17365 0.64993,-0.24522 1.22163,-0.19771l0.16233,0.27675l-0.244,0.25937c-1.34677,0.56038 -2.35937,-0.08571 -3.22278,0.81449c-0.04912,0.95863 0.06914,0.84461 0.54966,1.80829l-0.24784,0.45364l-0.32972,0.07722c-0.69279,-0.47668 -1.81637,-1.97143 -2.56779,-2.74791c0.99178,-1.23518 2.16772,-2.43558 3.43646,-3.3845z" fill="#19191a"/><path d="M117.57392,121.62756l0.47102,0.15606c0.73342,1.21031 -0.96671,2.31267 -1.84488,3.12756c-0.16132,-0.08167 -0.42008,-0.27352 -0.57958,-0.38288l-0.0378,-0.49286c0.33053,-0.85815 1.31705,-1.72561 1.99124,-2.40788z" fill="#000101"/><path d="M217.75876,137.42345c1.39286,0.22783 2.18531,1.90896 2.47035,3.15121c-1.34636,0.17123 -2.3066,0.35842 -3.63275,0.65438c0.82884,-0.74171 1.9407,-1.56813 1.66577,-2.78086l-0.42857,-0.04326c-0.7783,0.38086 -1.19272,0.87028 -1.81132,1.47574l-0.21833,0.29838c0.03437,0.76678 1.06132,1.16139 1.91846,2.15741c0.13342,0.70451 0.19407,0.38208 -0.2062,0.99542l-0.39825,0.02325c-0.96833,-0.46698 -2.37736,-1.79757 -2.3531,-2.95229c0.30121,-0.72877 2.23585,-2.28275 2.99394,-2.97938z" fill="#19191a"/><path d="M168.53288,244.7628c0.37358,0.39016 0.0841,0.8248 0.20054,0.99663c1.00957,1.5 0.61334,1.88612 2.36705,2.28841c-0.19124,0.4973 -1.11732,1.32008 -1.54185,1.74259c-0.32466,-0.45889 -2.30317,-2.41375 -2.84292,-2.97372c0.19185,-0.33154 1.47776,-1.68396 1.81718,-2.05391z" fill="#0e0f0f"/><path d="M184.38578,112.1157l0.37803,0.09704c0.15344,0.43524 0.26018,0.65013 0.4878,1.04151c0.40856,0.70694 0.66429,1.49191 0.7502,2.30377c0.08228,0.76799 0.14919,0.78396 -0.24097,1.2659l-0.39097,-0.10896c-0.93518,-0.9192 -1.90836,-1.7723 -2.88699,-2.6434z" fill="#19191a"/><path d="M193.80505,102.6653c0.43484,1.10782 -0.09016,0.77244 0.81247,2.0903c1.08295,1.58127 0.60182,0.66247 1.73753,1.37547c-0.33477,0.67237 -0.77143,0.99946 -1.32028,1.51557c-1.01887,-0.99319 -2.02096,-2.00377 -3.00586,-3.03093c0.60788,-0.62972 1.19171,-1.29784 1.77615,-1.9504z" fill="#19191a"/><path d="M129.59919,225.16779c0.32891,0.20822 0.97642,0.99865 1.25681,1.33019c0.24683,0.9845 0.80135,2.15903 0.56907,3.05458l-0.48133,0.28302c-1.02978,-1.1058 -2.37736,-1.80121 -2.5504,-3.12938c0.16395,-0.74798 0.61375,-1.0128 1.20586,-1.53841z" fill="#19191a"/><path d="M226.36051,70.31624c0.4407,0.95721 1.63949,3.64933 1.35445,4.5936l-0.32749,0.06469l-0.36995,-0.32992c-0.99461,-0.83612 -1.82345,-1.64535 -2.74933,-2.54717c0.76819,-0.54057 1.39892,-1.14805 2.09232,-1.7812z" fill="#0e0f0f"/><path d="M210.21833,203.14488c0.50539,0.71563 -0.33356,0.68127 0.2628,1.59299l0.97844,0.13544l0.16577,0.31536l-0.43261,0.49933l0.12736,0.23046c0.66105,-0.00404 0.87938,0 1.5283,0.12129l0.12332,0.31132l-0.87129,0.91577c-0.33962,0.21024 -0.31132,0.20216 -0.70957,0.23248c-1.15027,-0.72574 -1.781,-1.74259 -2.8221,-2.74326z" fill="#19191a"/><path d="M200.88396,212.44205c0.30768,0.33558 0.1409,0.57008 0.41462,0.99057c0.49185,0.76011 1.65425,2.75337 1.13875,3.59434l-0.48578,-0.0465c-0.93073,-0.87736 -1.91462,-1.90027 -2.82958,-2.80997z" fill="#19191a"/><path d="M213.70957,141.24704l0.29717,0.25512c-0.13949,0.5157 -0.21833,0.65883 -0.44474,1.12237l0.21024,0.32385l0.89555,0.02689c0.36995,0.4316 0.48922,2.13093 0.48518,2.72547l-0.3841,0.37136c-0.97237,-0.87635 -1.98922,-1.92615 -2.92722,-2.85465c0.57615,-0.75505 1.18666,-1.31179 1.86792,-1.97042z" fill="#19191a"/><path d="M191.1746,105.47689c0.33376,0.36105 0.25937,0.82722 0.32062,1.42763c0.37015,0.07743 0.6091,0.08632 0.9847,0.11442l0.18315,0.31597l-0.38834,0.58908c0.17062,0.56846 0.00485,0.36287 0.48053,0.66206c0.38774,-0.20054 0.66408,-0.36206 1.03827,-0.58969l0.27918,0.27271c-0.15627,0.54239 -0.53612,0.71968 -1.02857,1.14562c-0.31536,0.356 -0.11664,0.22682 -0.66489,0.30809c-0.62325,-0.43059 -1.97284,-1.94171 -2.76206,-2.64987z" fill="#19191a"/><path d="M158.87284,254.44407l0.2903,0.10916c0.29717,1.12803 1.91098,3.2527 1.34858,4.20889l-0.51429,-0.03032c-1.06516,-0.91577 -1.77817,-1.6597 -2.73497,-2.66644z" fill="#0e0f0f"/><path d="M166.13753,247.42116c-0.39643,2.60984 1.63686,2.16307 2.22311,3.28302c-0.10168,0.58827 -0.70249,1.0027 -1.16907,1.43329c-0.92022,-1.0128 -1.8657,-2.00337 -2.83524,-2.96968c0.56745,-0.6004 1.18322,-1.17453 1.7812,-1.74663z" fill="#0e0f0f"/><path d="M217.91442,196.26752c0.76213,0.36489 0.59232,0.42493 1.30795,0.34751c0.49124,-0.97015 -0.2345,-1.93605 0.12534,-2.55606l0.36995,0.11139c0.02426,0.77951 -0.07278,1.40741 0.42857,1.92493c0.55593,0.05822 1.83356,0.10431 2.20553,0.4035l-0.11927,0.31274c-1.14623,0.41018 -1.64151,-0.03396 -2.29447,0.4779c0.11523,0.53531 0.18396,0.88625 0.24461,1.42904l-0.19811,0.26402l-0.42655,0.05883c-0.58827,-0.62588 -0.84704,-1.04939 -1.30997,-1.75532c-0.22237,-0.21873 -0.39825,-0.39764 -0.60647,-0.63012z" fill="#19191a"/><path d="M122.62237,115.59319l0.16112,0.17507c0.07177,0.62891 0.78821,2.58073 1.20788,3.04104c0.46395,-0.01961 0.58241,-0.10977 0.9942,-0.30728l0.14009,-0.06833l0.18113,0.23733c-0.12655,0.51873 -0.64326,0.84825 -1.07406,1.21173c-0.92123,0.16294 -2.44185,-2.01044 -3.02325,-2.72931z" fill="#19191a"/><path d="M120.03093,118.19575l0.1591,0.15121c0.1217,0.66388 0.97763,2.57588 1.54771,2.84373c0.40553,-0.18922 0.62487,-0.3566 1.0502,-0.25088l0.02466,0.37844l-0.83187,0.86584l-0.37642,0.14697c-0.8442,-0.24299 -2.06927,-1.6502 -2.59306,-2.37554c-0.02507,-0.60748 0.57008,-1.15047 1.01968,-1.75977z" fill="#19191a"/><path d="M142.16341,154.59906c1.30613,0.45445 2.08039,2.50714 1.93949,3.76415l-0.32163,0.19326c-0.91092,-1.15836 -2.09495,-1.5841 -2.5496,-2.70889c0.15,-0.77264 0.24239,-0.6471 0.93174,-1.24852z" fill="#19191a"/><path d="M207.40431,205.8942c0.3376,0.12332 0.17588,0.03437 0.42251,0.40431l-0.17588,0.81671l0.27695,0.31941c0.48113,-0.08895 0.56199,-0.11321 1.06941,-0.10916c0.00606,0.48518 -0.08086,0.64488 -0.2062,1.11792c0.53571,0.67318 0.7035,-0.33356 1.7345,0.07278l-0.22035,0.4124l-1.1624,1.06334c-0.94811,-0.76011 -2.16914,-1.51213 -2.56536,-2.59771c0.07278,-0.80256 0.25674,-0.79043 0.82682,-1.5z" fill="#19191a"/><path d="M103.40478,43.39164c0.83875,0.92992 4.07406,4.3686 4.63868,5.17621l-0.06813,0.86402c-1.61482,-1.80748 -3.19791,-3.81833 -4.73268,-5.70829z" fill-opacity="0.98824" fill="#9d9fa0"/><path d="M103.24265,43.72358c-0.67338,-0.66671 -1.3876,-1.30654 -1.8562,-2.14003l-0.00869,0.03376l0.56563,0.08592l-0.52864,0.01536l-0.04003,-0.2527c0.74636,0.17749 1.5558,1.29522 2.03005,1.92574z" fill-opacity="0.98431" fill="#3a3c3e"/></g></svg></svg>