<svg id="svg" version="1.1" viewBox="0 0 300 300" width="300" height="300" xmlns="http://www.w3.org/2000/svg"><svg xmlns="http://www.w3.org/2000/svg"><defs><clipPath id="clip-1"><rect x="0" y="0" transform="scale(0.1943,0.1943)" width="1544" height="1544" fill="none"/></clipPath></defs><g clip-path="url(#clip-1)" fill="none" fill-rule="nonzero" stroke="none" stroke-width="1" stroke-linecap="butt" stroke-linejoin="miter" stroke-miterlimit="10" stroke-dasharray="" stroke-dashoffset="0" font-family="none" font-weight="none" font-size="none" text-anchor="none" style="mix-blend-mode: normal"><path d="M63.53957,9.72474c1.40635,0.26473 5.65123,3.66328 6.97986,4.68274c12.0136,9.21694 22.93601,20.09233 33.52383,30.89369c14.51911,14.93821 28.66302,30.23666 42.41813,45.88096c7.91658,0.55337 19.32999,0.74126 27.39074,0.74709c3.17584,-2.50667 11.07455,-10.36399 14.28012,-13.57694c13.65855,-13.7592 29.13847,-26.81833 38.8807,-43.80097c4.48057,-7.80816 5.78627,-16.65709 9.00194,-24.71646c0.6956,6.07012 1.49611,14.66608 1.22604,20.63615c-1.3057,28.75842 -10.18523,61.81924 -20.15868,88.69255c1.69624,3.63497 4.0978,11.05356 5.25583,15.03672c2.86399,9.72124 4.68459,19.71937 5.43459,29.82591c0.22733,3.29106 0.65674,12.80615 0.19624,15.82986c-0.49741,3.26114 -5.13731,10.77552 -6.87241,13.92882c3.09132,5.65492 6.07383,11.77539 9.20984,17.56749l4.63407,8.5978c4.18135,7.71956 4.3601,7.04534 0.75194,15.25065c-3.06606,6.89573 -3.09909,7.05699 -10.33873,9.19819c-1.38925,1.36593 -2.45402,3.08161 -4.09974,4.67876l3.45855,-0.02915c-10.97604,9.5693 -30.77915,7.21049 -42.42066,0.08161c-2.66503,-1.63212 -5.00887,-3.28562 -7.51477,-5.14702c-6.29689,11.73964 -21.14961,17.66775 -31.459,25.43199c-7.22681,5.4443 -12.14767,10.2785 -17.92753,17.17034c-6.20479,-8.61723 -10.43355,-17.45984 -17.77189,-25.87889c-4.10207,-4.63601 -8.51619,-8.98446 -13.21146,-13.02008c-11.46567,-10.00842 -37.09896,-27.40997 -27.72202,-45.24482c-4.16347,2.51813 -6.94158,4.8342 -10.29326,8.41904c-1.36962,1.46503 -3.0989,3.57124 -4.50369,4.87889l-0.16399,0.15155c5.04579,-22.93154 13.10557,-45.09385 23.96911,-65.90946c2.46062,-4.60959 5.00304,-8.27079 7.53109,-12.66237c-18.25162,-32.02519 -20.48199,-55.48329 -20.48608,-91.40188c-0.09501,-12.06956 0.17215,-24.13931 0.8013,-36.19275z" fill="#fefefe"/><path d="M100.81477,50.55c12.06082,13.17513 23.68951,26.73944 34.86742,40.67137c2.7511,3.47312 5.41282,7.01619 7.98245,10.62571c0.9818,1.37778 3.72902,5.49229 4.71567,6.55415c1.62377,1.74773 6.44339,4.54741 8.72429,6.12571c3.84074,2.6351 7.51146,5.50997 10.98983,8.60771c19.42189,17.54262 20.80434,34.46833 22.80078,59.62325c0.33692,4.24488 0.33012,9.03692 0.73776,13.22526c-1.50505,-3.33225 -2.86244,-7.44598 -4.06049,-10.94631c-6.20596,-18.13057 -13.37623,-35.4614 -28.29909,-48.42474c5.93316,8.96503 8.78335,14.5568 11.80278,24.94974c-10.77435,-9.72008 -17.20648,-7.21418 -30.06684,-8.71088c-6.93983,-0.80771 -13.85402,-2.33258 -21.00602,-2.94229c7.20233,3.88407 13.91425,8.61548 19.99294,14.09359c2.7919,2.5601 5.0318,5.41321 7.63834,7.89793c5.81405,5.54223 13.02474,8.68601 21.03439,9.21956c1.76347,0.11755 3.67675,0.40142 5.49249,0.35168c-5.93899,3.15583 -13.87519,6.17468 -20.3524,9.27474c-11.30266,-5.55661 -21.62332,-10.55848 -34.41878,-11.58245c-3.58329,-0.28679 -6.41172,-0.11405 -9.90078,-0.18361c7.49786,3.37966 19.18018,9.96626 24.67034,15.92273c6.38122,6.92293 8.30712,10.54858 16.85732,15.61982c-0.60214,-1.52915 -1.03815,-3.13601 -1.60104,-4.54469c6.29942,2.64249 14.23174,6.84909 19.34495,11.38601c9.96179,8.83873 10.46852,12.47798 23.58905,16.94301c-4.03873,-4.48834 -8.02247,-8.7921 -12.56192,-12.78692c-1.18484,-1.04339 -2.59294,-2.26749 -3.68841,-3.38666c2.70913,1.41451 6.18867,3.76166 8.80512,5.47927c5.98776,3.9851 11.91956,8.05376 17.79326,12.20402c4.11723,2.85816 9.21567,6.90544 14.0829,7.93329c-1.09585,2.13342 -1.51943,3.07772 -3.22927,4.81282c-7.42034,2.35298 -21.37927,0.48964 -28.34301,-3.20402c-3.50771,-1.85946 -5.84709,-4.84974 -8.66308,-7.56606c-9.29475,-8.61917 -18.59942,-14.02073 -31.29385,-15.19236c5.64579,6.35168 6.72902,6.44689 13.50253,10.74288c-13.07429,-2.19365 -25.32532,-10.97409 -35.61004,-18.86658c-1.65525,2.76295 -3.48944,7.96049 -3.71541,11.24028c-5.05415,-3.7228 -7.91503,-7.42422 -11.54806,-12.50712c0.67014,3.21373 1.27539,6.75389 2.30576,9.84715c3.69754,11.09456 10.98731,20.72992 18.15233,29.81541c0.61768,0.78303 1.28433,1.61852 1.84488,2.44041c-11.72681,-9.08161 -30.48575,-22.50972 -32.40058,-38.0013c-0.96256,-7.78756 1.55868,-16.32319 6.04275,-22.71179c-8.52707,5.53174 -15.6272,14.72021 -19.55751,24.03886c-3.48439,-15.19624 -4.69275,-28.98692 3.96451,-42.93323c3.65304,-5.88497 6.73018,-8.18685 11.95065,-12.40142c-12.58348,4.49786 -23.59469,12.54404 -31.70266,23.16626c4.14307,-12.41639 8.72137,-24.90369 17.24165,-35.1206c3.50479,-4.20272 8.34268,-8.72642 12.30622,-12.54948c-7.4456,-4.12306 -14.0693,-12.99579 -16.25149,-21.15835c-0.65654,-2.45635 -0.8419,-4.12442 -1.30434,-6.59611c10.07254,10.68031 18.8864,15.7364 31.98303,22.35913c3.191,1.61367 7.32202,3.28834 10.31172,4.89773c0.57047,-9.03905 2.8568,-18.20032 12.26444,-21.74631c-5.73148,-9.54035 -10.43996,-14.7408 -19.53167,-20.89197c6.63731,-0.79585 12.28018,0.11444 18.47623,2.54592c-3.20965,-6.34313 -7.53148,-12.83685 -11.58731,-18.70842c-6.82364,-9.84132 -14.09786,-19.36224 -21.79974,-28.53264z" fill="#000000"/><path d="M70.98031,24.61496c0.36159,0.31962 1.67137,6.99054 1.9432,8.08271c1.82118,7.41043 4.18892,14.67591 7.084,21.7364c5.27992,12.83433 14.71321,26.56496 23.56768,37.43608c-6.6103,-4.06438 -12.94411,-8.5397 -19.25868,-13.03931c2.62617,6.10589 8.06697,13.01056 12.41522,17.95453c3.25648,3.45835 9.00486,9.13795 12.9101,11.81813c-4.86043,1.08187 -8.65531,2.6147 -12.64061,5.68329c-1.1967,-1.40246 -3.75719,-3.67733 -5.15479,-5.11263c-2.73925,-2.81308 -4.7285,-5.21172 -7.10324,-8.31392c-11.40117,-14.89527 -13.58705,-31.98575 -14.28497,-50.18199c-0.33536,-8.74119 -0.66451,-17.25039 0.52209,-26.06328z" fill="#000000"/><path d="M152.36736,163.40557c4.74404,1.05835 9.44786,2.62422 13.57053,5.23931c1.52584,0.96801 5.43478,3.74281 6.0886,5.30576c-5.88653,-1.77532 -12.84812,-1.46192 -17.10291,-6.28562c-0.80635,-0.91438 -2.3285,-3.08394 -2.55622,-4.25946z" fill="#000000"/><path d="M97.48834,46.76852c0.82189,0.95479 2.70855,2.90207 3.32642,3.78148l-0.225,0.41911c-1.06516,-1.13161 -2.08795,-2.63918 -3.24734,-3.88873z" fill="#535557"/><path d="M97.34242,47.08038c-0.56211,-0.5114 -1.35972,-1.13005 -1.43724,-1.85829c0.68005,0.14417 1.20117,0.97811 1.58316,1.54644z" fill="#dbdbdc"/></g></svg></svg>